<?xml version="1.0" encoding="UTF-8"?>
<svg version="1.1" xmlns="http://www.w3.org/2000/svg" width="64" height="64">
<path d="M0 0 C1.51400391 0.01740234 1.51400391 0.01740234 3.05859375 0.03515625 C4.07050781 0.04417969 5.08242188 0.05320312 6.125 0.0625 C7.29869141 0.07990234 7.29869141 0.07990234 8.49609375 0.09765625 C9.33458179 1.55303193 10.16673309 3.01205998 10.99609375 4.47265625 C11.46015625 5.28476563 11.92421875 6.096875 12.40234375 6.93359375 C13.49609375 9.09765625 13.49609375 9.09765625 13.49609375 11.09765625 C14.15609375 11.09765625 14.81609375 11.09765625 15.49609375 11.09765625 C15.76421875 10.21078125 16.03234375 9.32390625 16.30859375 8.41015625 C16.70046875 7.31703125 17.09234375 6.22390625 17.49609375 5.09765625 C17.80546875 4.14890625 18.11484375 3.20015625 18.43359375 2.22265625 C20.49609375 0.09765625 20.49609375 0.09765625 23.1015625 -0.24609375 C25.93711469 -0.2754397 28.67844763 -0.22357376 31.49609375 0.09765625 C33.12364019 1.72520269 32.62346452 3.53903948 32.62548828 5.78515625 C32.62864044 6.78289063 32.6317926 7.780625 32.63504028 8.80859375 C32.63301605 9.89398438 32.63099182 10.979375 32.62890625 12.09765625 C32.62986298 13.20367187 32.6308197 14.3096875 32.63180542 15.44921875 C32.63248742 17.79296933 32.63063179 20.13672178 32.62646484 22.48046875 C32.62111689 26.08207413 32.62640922 29.68355478 32.6328125 33.28515625 C32.63215172 35.55598986 32.63087057 37.82682339 32.62890625 40.09765625 C32.63093048 41.18304688 32.63295471 42.2684375 32.63504028 43.38671875 C32.63031204 44.88332031 32.63031204 44.88332031 32.62548828 46.41015625 C32.62469269 47.29316406 32.62389709 48.17617188 32.62307739 49.0859375 C32.49609375 51.09765625 32.49609375 51.09765625 31.49609375 52.09765625 C29.83180324 52.19589562 28.16327444 52.22739256 26.49609375 52.22265625 C25.13484375 52.22652344 25.13484375 52.22652344 23.74609375 52.23046875 C21.49609375 52.09765625 21.49609375 52.09765625 20.49609375 51.09765625 C20.33954348 49.61126633 20.24542432 48.11816498 20.1796875 46.625 C20.13779297 45.72587891 20.09589844 44.82675781 20.05273438 43.90039062 C20.01341797 42.95486328 19.97410156 42.00933594 19.93359375 41.03515625 C19.89041016 40.08576172 19.84722656 39.13636719 19.80273438 38.15820312 C19.69630099 35.80484272 19.59428367 33.45137271 19.49609375 31.09765625 C19.16609375 31.42765625 18.83609375 31.75765625 18.49609375 32.09765625 C16.68359375 32.23046875 16.68359375 32.23046875 14.49609375 32.22265625 C13.77421875 32.22523437 13.05234375 32.2278125 12.30859375 32.23046875 C10.49609375 32.09765625 10.49609375 32.09765625 9.49609375 31.09765625 C9.4710376 31.69827881 9.44598145 32.29890137 9.42016602 32.91772461 C9.30454095 35.62377062 9.18166439 38.32943908 9.05859375 41.03515625 C8.99961914 42.45344727 8.99961914 42.45344727 8.93945312 43.90039062 C8.89755859 44.79951172 8.85566406 45.69863281 8.8125 46.625 C8.75751343 47.87398071 8.75751343 47.87398071 8.70141602 49.14819336 C8.49609375 51.09765625 8.49609375 51.09765625 7.49609375 52.09765625 C5.83180324 52.19589562 4.16327444 52.22739256 2.49609375 52.22265625 C1.13484375 52.22652344 1.13484375 52.22652344 -0.25390625 52.23046875 C-2.50390625 52.09765625 -2.50390625 52.09765625 -3.50390625 51.09765625 C-3.60237592 49.53766577 -3.63189243 47.97325081 -3.63330078 46.41015625 C-3.63645294 45.41242187 -3.6396051 44.4146875 -3.64285278 43.38671875 C-3.64082855 42.30132812 -3.63880432 41.2159375 -3.63671875 40.09765625 C-3.63767548 38.99164063 -3.6386322 37.885625 -3.63961792 36.74609375 C-3.64029992 34.40234317 -3.63844429 32.05859072 -3.63427734 29.71484375 C-3.62892939 26.11323837 -3.63422172 22.51175772 -3.640625 18.91015625 C-3.63996422 16.63932264 -3.63868307 14.36848911 -3.63671875 12.09765625 C-3.63874298 11.01226562 -3.64076721 9.926875 -3.64285278 8.80859375 C-3.63970062 7.81085937 -3.63654846 6.813125 -3.63330078 5.78515625 C-3.63250519 4.90214844 -3.63170959 4.01914063 -3.63088989 3.109375 C-3.43985184 0.08288409 -3.04755691 0.11885947 0 0 Z M-1.50390625 4.09765625 C-1.80888559 6.06209817 -1.80888559 6.06209817 -1.76269531 8.33203125 C-1.76899963 9.20633789 -1.77530396 10.08064453 -1.78179932 10.98144531 C-1.77775085 11.92729492 -1.77370239 12.87314453 -1.76953125 13.84765625 C-1.7714447 14.81670898 -1.77335815 15.78576172 -1.77532959 16.78417969 C-1.77669204 18.8352891 -1.77299143 20.88640711 -1.76464844 22.9375 C-1.75394984 26.08483164 -1.76454179 29.23159245 -1.77734375 32.37890625 C-1.77602217 34.36849085 -1.7734598 36.35807509 -1.76953125 38.34765625 C-1.77357971 39.29350586 -1.77762817 40.23935547 -1.78179932 41.21386719 C-1.775495 42.08817383 -1.76919067 42.96248047 -1.76269531 43.86328125 C-1.76030853 45.02005371 -1.76030853 45.02005371 -1.75787354 46.20019531 C-1.66698045 48.33928208 -1.66698045 48.33928208 0.49609375 50.09765625 C3.80292841 49.80782356 3.80292841 49.80782356 6.49609375 48.09765625 C6.58367378 46.09800643 6.60305951 44.09529515 6.59375 42.09375 C6.58891602 40.27133789 6.58891602 40.27133789 6.58398438 38.41210938 C6.57141602 36.49301758 6.57141602 36.49301758 6.55859375 34.53515625 C6.55408203 33.25189453 6.54957031 31.96863281 6.54492188 30.64648438 C6.5330892 27.46349603 6.51660443 24.28059863 6.49609375 21.09765625 C9.0509848 23.53804238 10.74864077 26.01881052 12.49609375 29.09765625 C14.91194949 29.06672452 14.91194949 29.06672452 17.49609375 28.09765625 C19.2212184 25.14756252 19.2212184 25.14756252 20.49609375 22.09765625 C21.15609375 21.76765625 21.81609375 21.43765625 22.49609375 21.09765625 C22.48562012 21.90509277 22.47514648 22.7125293 22.46435547 23.54443359 C22.42289544 27.18714307 22.39679937 30.829803 22.37109375 34.47265625 C22.35433594 35.74367187 22.33757813 37.0146875 22.3203125 38.32421875 C22.31386719 39.5359375 22.30742188 40.74765625 22.30078125 41.99609375 C22.29030762 43.11677246 22.27983398 44.23745117 22.26904297 45.39208984 C22.21554052 48.24743468 22.21554052 48.24743468 24.49609375 50.09765625 C27.80292841 49.80782356 27.80292841 49.80782356 30.49609375 48.09765625 C30.59921412 46.72706032 30.63458328 45.35125966 30.64135742 43.97680664 C30.64773727 43.10242447 30.65411713 42.2280423 30.66069031 41.3271637 C30.66180313 40.3761528 30.66291595 39.42514191 30.6640625 38.4453125 C30.6673909 37.47484482 30.6707193 36.50437714 30.67414856 35.50450134 C30.67922205 33.44742305 30.68155676 31.3903365 30.68139648 29.33325195 C30.68358201 26.17710881 30.70173066 23.02131554 30.72070312 19.86523438 C30.72363708 17.87109495 30.72562186 15.87695386 30.7265625 13.8828125 C30.73374802 12.93382584 30.74093353 11.98483917 30.74833679 11.00709534 C30.74372185 9.69079384 30.74372185 9.69079384 30.73901367 8.34790039 C30.74043869 7.57370255 30.74186371 6.7995047 30.74333191 6.00184631 C30.66169116 3.85647032 30.66169116 3.85647032 28.49609375 2.09765625 C26.12852048 1.26223771 26.12852048 1.26223771 23.49609375 2.09765625 C20.04540325 6.18586435 17.77660067 11.29658906 15.49609375 16.09765625 C14.83609375 16.09765625 14.17609375 16.09765625 13.49609375 16.09765625 C12.75552734 14.70740234 12.75552734 14.70740234 12 13.2890625 C11.35295876 12.0793767 10.70581821 10.86974403 10.05859375 9.66015625 C9.73310547 9.04849609 9.40761719 8.43683594 9.07226562 7.80664062 C7.55894233 4.76049419 7.55894233 4.76049419 5.49609375 2.09765625 C1.53492575 1.70675292 1.53492575 1.70675292 -1.50390625 4.09765625 Z " fill="#624DFF" transform="translate(17.50390625,5.90234375)"/>
<path d="M0 0 C2.475 0.495 2.475 0.495 5 1 C6.53739986 3.51871891 7.68702675 5.74679904 8.8125 8.4375 C9.12380859 9.13166016 9.43511719 9.82582031 9.75585938 10.54101562 C12 15.63595467 12 15.63595467 12 18 C12.66 18 13.32 18 14 18 C14.26554687 17.14148438 14.53109375 16.28296875 14.8046875 15.3984375 C16.01023801 11.97089192 17.47244386 8.85826202 19.125 5.625 C19.66382812 4.56539062 20.20265625 3.50578125 20.7578125 2.4140625 C21.16773437 1.61742187 21.57765625 0.82078125 22 0 C23.32 0 24.64 0 26 0 C26 13.86 26 27.72 26 42 C25.34 42 24.68 42 24 42 C23.67 30.45 23.34 18.9 23 7 C20.36 11.95 17.72 16.9 15 22 C13.35 21.67 11.7 21.34 10 21 C7.69 16.38 5.38 11.76 3 7 C2.67 18.55 2.34 30.1 2 42 C1.34 42 0.68 42 0 42 C0 28.14 0 14.28 0 0 Z " fill="#9BBCFF" transform="translate(19,11)"/>
</svg>
